<svg id="Layer_1" data-name="Layer 1" xmlns="http://www.w3.org/2000/svg" viewBox="0 0 1162.2 317.48"><defs><style>.cls-1{fill:#78cde6;}.cls-2{fill:#004128;}</style></defs><path class="cls-1" d="M1096,207.81a102.23,102.23,0,0,1-193.56-40.13h29.85a72.39,72.39,0,0,0,128.42,40.13Z"/><path class="cls-2" d="M1021.18,142.3h0L940.6,49.56,918.12,69.1l16.26,18.72a101.88,101.88,0,0,0-32,68.88h29.85A72.22,72.22,0,0,1,954,110.37l50.73,58.39Z"/><path class="cls-2" d="M1106.59,167.34c.08-1.71.13-3.42.13-5.14a102.23,102.23,0,0,0-58.61-92.48l-15.9,25.54a72.45,72.45,0,0,1,44.72,66.94c0,1.72-.07,3.44-.19,5.14h-58.21L1000,197.13h118.83V167.34Z"/><path class="cls-2" d="M989.7,96.62a2.6,2.6,0,0,0,.84,3.6h0a2.61,2.61,0,0,0,3.6-.83l1.17-1.89,8.3,5.16-1.18,1.89a2.62,2.62,0,0,0,.84,3.6h0a2.61,2.61,0,0,0,3.6-.84l1.18-1.89,4.06,2.53,10-16h0l16.31-26.21,4.47-7.19,2-3.13h0l-4.06-2.52,1.18-1.9a2.62,2.62,0,0,0-.84-3.6h0a2.62,2.62,0,0,0-3.6.84l-1.18,1.89L1028,45l1.18-1.89a2.61,2.61,0,0,0-.84-3.6h0a2.61,2.61,0,0,0-3.6.84l-1.17,1.89-4.06-2.53L986.81,92.21l4.06,2.52Z"/><path class="cls-2" d="M524.13,97.61a26.61,26.61,0,0,0-10.7,2.39l1.45,8.75a22.34,22.34,0,0,1,6-1c5,0,7.66,3,7.66,8.34,0,12.15-8.16,20.56-20.66,21.24l-2.46-39.6L494.9,98.9l2.9,48.77c1.1.08,2.11.17,3.73.17,23,0,37.82-13,37.82-33.23C539.35,104,533.65,97.61,524.13,97.61Z"/><path class="cls-2" d="M547.17,98.71v9.78H554v18.87h10.89V98.71Z"/><path class="cls-2" d="M601.64,98.71H576.07v9.61h7.55a30.44,30.44,0,0,0-4.16,15.81c0,14.53,8,23.79,21,23.79,14.1,0,23-10.71,23-27.62C623.47,105.6,616.51,98.71,601.64,98.71Zm-.42,39.44c-6.73,0-10.54-5.86-10.54-15.47a27.34,27.34,0,0,1,3.65-14.36h5.87c8.92,0,12.06,3.23,12.06,12.75C612.26,131.94,608.18,138.15,601.22,138.15Z"/><path class="cls-2" d="M665.8,115.71c-.16-11.8-5-17-16.31-17H631.13v9.78h15c6.81,0,8.75,2,8.84,10,.1,3.23.1,7,.1,10.71,0,7.39-.1,14.61-.1,17.51H665.8c0-3.75.09-13.44.09-21.93C665.89,121.32,665.89,118.09,665.8,115.71Z"/><path class="cls-2" d="M710.5,137c0-2.29.16-9.6.16-14.28,0-2.71,0-5.09-.08-7.3-.33-11.56-5.09-16.67-16.15-16.67H677.52v9.78h13.35c6.79,0,8.67,2,8.92,10,.09,3.48.09,8.16.09,13.6V137H676.34l-1,9.78h40.45l1.87-9.78Z"/><path class="cls-2" d="M720.37,98.71v9.78h6.79v18.87H738V98.71Z"/><path class="cls-2" d="M772,137.13l-1.36-38.42H749.93v9.78h10.12l1.1,28.47H746.62l-1.1,9.78H771.1A69.68,69.68,0,0,0,772,137.13Z"/><path class="cls-2" d="M782.14,98.71v9.78h7.49v38.25H800.5v-48Z"/><path class="cls-2" d="M858.11,107.9c0-2.81-1.1-4.68-3.73-6.29a43.91,43.91,0,0,0-9.19-4.16l-4.49,8.07c2,1.35,3.64,2.3,5.09,3.15,1.18.85,1.62,1.43,1.62,2.54,0,2-1.37,6.46-4.42,14.37L819.87,96.93l-8,6.54,5.78,7.15c-2.63,10.11-4.58,23.28-4.68,28.89l-.08,7.23h10.29l.85-28.22,24.81,30.76,7.91-6.71L848.26,132C854.46,121.83,858.11,113,858.11,107.9Z"/><path class="cls-2" d="M483.35,116.14c-.17-12-5.36-17.43-16.66-17.43h-30.8v9.78H464c7.14,0,8.49,2.21,8.66,10,.1,3.31.18,6.88.18,10.71,0,6.12-.18,12.75-.18,17.51h10.64c.16-4.43.25-11.39.25-18.36C483.52,124.13,483.43,119.8,483.35,116.14Zm-29.77-9.21h-9.29c-.08.46-.18,1-.26,1.56a184.29,184.29,0,0,0-1.81,21.5c.08,2.9.17,5.1.33,7.14-.6.08-1.86.08-3.74.08-1.52,0-3,0-4.5-.08l-1.11,9.61c2.56,0,5,.08,8.34.08,3.14,0,6.32-.08,10.48-.25.33-3.41.85-7.31.93-10.2-.25-3.75-.5-8.76-.5-13.34,0-2.92.43-10.27.93-14.54C453.44,107.9,453.51,107.37,453.58,106.93Z"/><path class="cls-2" d="M586.37,188.21V198h7.22v49.46h10.79V188.21Z"/><path class="cls-2" d="M659.44,188.21V198h6.81v18.88h10.87V188.21Z"/><path class="cls-2" d="M734.15,197.4c0-2.81-1.12-4.68-3.75-6.29a43.58,43.58,0,0,0-9.17-4.17L716.72,195c2,1.35,3.66,2.28,5.1,3.14,1.19.85,1.61,1.44,1.61,2.55,0,1.95-1.35,6.46-4.41,14.35L695.9,186.43l-8,6.54,5.79,7.14c-2.65,10.11-4.59,23.29-4.68,28.9l-.08,7.22h10.27l.85-28.21,24.82,30.76,7.9-6.72-8.5-10.54C730.49,211.33,734.15,202.49,734.15,197.4Z"/><path class="cls-2" d="M742.69,188.21l-1.1,9.6h23.14l1.1-9.6Z"/><path class="cls-2" d="M810.72,205.21c-.17-11.81-5-17-16.31-17H776.05V198h15c6.79,0,8.74,2.05,8.83,10,.09,3.23.09,7,.09,10.7,0,7.39-.09,14.62-.09,17.51h10.88c0-3.74.08-13.43.08-21.92C810.8,210.82,810.8,207.59,810.72,205.21Z"/><path class="cls-2" d="M855.42,226.45c0-2.29.18-9.59.18-14.27,0-2.73,0-5.09-.1-7.31-.34-11.56-5.1-16.66-16.15-16.66h-16.9V198h13.34c6.81,0,8.67,2.05,8.92,10,.08,3.48.08,8.15.08,13.6v4.83H821.26l-1,9.78h40.45l1.87-9.78Z"/><path class="cls-2" d="M616.74,229.86c15.89-14.11,23.12-21.67,23.12-29a7.83,7.83,0,0,0-.34-2.89H617.76c-1.53-5.87-2.89-17.53-2.89-25.27l10-1.18c.17,5.6,1.44,16.08,1.78,16.68h21.25a23.27,23.27,0,0,1,2.29,10.53c0,12.58-7.9,23-26.76,39.1Z"/><path class="cls-1" d="M54.85,86.61h19.3c14.29,0,21.26,5.7,21.26,16a12.67,12.67,0,0,1-7.14,11.65v.17c4.85,1.19,11.48,5.87,11.48,14.29,0,10.63-6.21,18-23,18H54.85ZM73.64,112c6.81,0,10.21-2.38,10.21-8.16,0-6.21-4.08-8.25-11.74-8.25H66.5V112Zm2,25.6c8,0,12.5-2,12.5-8.5s-4.59-8.85-13.61-8.85h-8v17.35Z"/><path class="cls-1" d="M107.4,133.81c0-11.65,10.55-14,19.14-14.12l9.18-.08v-4c0-5.36-2.89-6.8-9.61-6.8A47.92,47.92,0,0,0,113,110.93l-2.3-8.33A45.45,45.45,0,0,1,128,99.2c12.84,0,18.79,3.91,18.79,13.86v22.53c0,2.3,2,2.81,4.51,2.9l-.43,8.59c-.85.08-1.78.08-2.8.08-4.94,0-10.29-1.19-11.32-5.27-3.31,2.63-8.07,5.61-14.2,5.61C113.1,147.5,107.4,142.74,107.4,133.81Zm28.32,1.87V126.5l-8.59.34c-5.27.08-8.67,2.29-8.67,6.12,0,4.08,3.06,5.7,6.55,5.7C128.67,138.66,132.49,137.21,135.72,135.68Z"/><path class="cls-1" d="M161.15,100.3h11.31v6.21c2.21-3.15,6.72-7.14,12.5-7.14a19,19,0,0,1,6,.76l-1.61,9.36a25.72,25.72,0,0,0-6-.51,14.91,14.91,0,0,0-11,5.27v32.49H161.15Z"/><path class="cls-1" d="M194.66,118.23H219v9.27H194.66Z"/><path class="cls-1" d="M233.36,86.61h11.56v60.13H233.36Z"/><path class="cls-1" d="M282,133.81c0-11.65,10.54-14,19.13-14.12l9.19-.08v-4c0-5.36-2.9-6.8-9.61-6.8a48,48,0,0,0-13.1,2.12l-2.3-8.33a45.49,45.49,0,0,1,17.27-3.4c12.84,0,18.79,3.91,18.79,13.86v22.53c0,2.3,2,2.81,4.51,2.9l-.43,8.59c-.85.08-1.78.08-2.8.08-4.94,0-10.29-1.19-11.31-5.27-3.32,2.63-8.08,5.61-14.21,5.61C287.7,147.5,282,142.74,282,133.81Zm28.32,1.87V126.5l-8.59.34c-5.28.08-8.68,2.29-8.68,6.12,0,4.08,3.06,5.7,6.55,5.7C303.27,138.66,307.09,137.21,310.33,135.68Z"/><path class="cls-1" d="M335.75,100.3h11.31v4.93c3.4-2.55,9.1-6.12,15.57-6.12,14.2,0,15.13,8.59,15.13,18.2v29.43H366.54V118.59c0-7.06-1.36-9.61-7.57-9.61a24.34,24.34,0,0,0-11.91,3.65v34.11H335.75Z"/><path class="cls-1" d="M233.36,86.61h11.56v60.13H233.36Z"/><path class="cls-1" d="M267.28,146.92c-6.78-.14-10.09-4.32-10.09-11.71V82.61h11.29v51.13c0,2.37,1,3.5,3.06,3.5a31.65,31.65,0,0,0,4.23-.46l1.31,8.92A45.8,45.8,0,0,1,267.28,146.92Z"/><path class="cls-1" d="M55.93,213.1v-37H67.66v36.48c0,10.63,5.78,15.14,14.71,15.14,9.19,0,14.8-4.94,14.8-17V176.11h11.48V211c0,20.33-13.86,26.37-26.28,26.37C69.36,237.34,55.93,231.81,55.93,213.1Z"/><path class="cls-1" d="M120.78,189.8h11.31v4.93c3.41-2.55,9.1-6.12,15.57-6.12,14.2,0,15.13,8.59,15.13,18.2v29.42H151.57V208.08c0-7.06-1.36-9.61-7.57-9.61a24.34,24.34,0,0,0-11.91,3.66v34.1H120.78Z"/><path class="cls-1" d="M195.19,189.8h12.25l8.5,27.72,2.64,9.53,2.89-9.61L231,189.8h11.9l-17.6,46.43h-14Z"/><path class="cls-1" d="M247.49,213.78c0-18.62,9.44-25.09,22.63-25.09,13.35,0,19.05,8.85,19.05,23.39v4.08H258.89c0,10.21,6.38,11.91,14.63,11.91a54.91,54.91,0,0,0,12.58-2l1.79,8.59a54.47,54.47,0,0,1-16.41,2.55C256.85,237.25,247.49,232,247.49,213.78Zm30-5.19c.08-7-2.73-11.73-8.42-11.73s-9.53,4.08-10,11.73Z"/><path class="cls-1" d="M299.88,189.8h11.31V196c2.21-3.15,6.72-7.15,12.5-7.15a18.94,18.94,0,0,1,6,.77L328.12,199a26.23,26.23,0,0,0-6-.51,14.93,14.93,0,0,0-11,5.27v32.49H299.88Z"/><path class="cls-1" d="M334.24,235.3l1.36-8.85A81.67,81.67,0,0,0,349,228c6.63,0,9.27-1.78,9.27-4.67,0-7.15-23.39-4.34-23.39-20.76,0-9.27,8.59-13.94,17.78-13.94a40.65,40.65,0,0,1,14.45,2.46l-2,8.42A43.31,43.31,0,0,0,353,197.71c-4.59,0-6.89,1.78-6.89,4.25,0,7.4,23.22,5.36,23.22,20.75,0,11.4-11.66,14.54-19.39,14.54A55.06,55.06,0,0,1,334.24,235.3Z"/><path class="cls-1" d="M377.49,175.33l7.43-7.51,7.6,7.51-7.6,7.6Zm1.91,14.47h11.39v46.43H379.4Z"/><path class="cls-1" d="M406.61,222.37v-23.9h-6.8V189.8h6.8v-9.53h11.31v9.53h14.37v8.67H417.92v23.3c0,4.6,1.87,5.87,6.29,5.87a37.91,37.91,0,0,0,9.27-1.36l1.28,9a41.24,41.24,0,0,1-11.91,2C412.65,237.34,406.61,233.85,406.61,222.37Z"/><path class="cls-1" d="M458.64,236.23h-4.43L438.65,189.8H450.9l8.76,29.68,2.21,7.82,2.47-7.74,10-29.76h11.48l-22.71,65.14H452.26Z"/><path class="cls-1" d="M174.07,175.33l7.43-7.51,7.6,7.51-7.6,7.6ZM176,189.8h11.39v46.43H176Z"/></svg>